<?xml version="1.0" standalone="no"?>
<!DOCTYPE svg PUBLIC "-//W3C//DTD SVG 20010904//EN"
 "http://www.w3.org/TR/2001/REC-SVG-20010904/DTD/svg10.dtd">
<svg version="1.0" xmlns="http://www.w3.org/2000/svg"
 width="600.000000pt" height="600.000000pt" viewBox="0 0 600.000000 600.000000"
 preserveAspectRatio="xMidYMid meet">

<g transform="translate(0.000000,600.000000) scale(0.100000,-0.100000)"
fill="#000000" stroke="none">
<path d="M2976 5533 c-3 -3 -42 -7 -87 -9 -46 -2 -87 -8 -93 -14 -5 -5 -25
-10 -42 -10 -18 0 -36 -4 -39 -10 -3 -5 -12 -10 -20 -10 -8 0 -26 -5 -42 -11
-15 -6 -30 -11 -33 -11 -41 -6 -178 -67 -205 -91 -10 -10 -26 -15 -34 -12 -9
3 -13 3 -9 0 3 -4 -26 -23 -65 -44 -40 -20 -74 -34 -77 -30 -3 4 -17 -3 -32
-16 -15 -13 -24 -26 -21 -29 4 -3 1 -6 -5 -6 -7 0 -12 -7 -12 -16 0 -10 5 -14
15 -10 13 4 13 2 5 -14 -14 -26 -49 -50 -66 -43 -8 3 -14 0 -14 -6 0 -6 -7
-11 -16 -11 -8 0 -13 -4 -10 -9 3 -4 -6 -13 -19 -19 -14 -7 -25 -16 -25 -21 0
-5 -9 -11 -20 -14 -24 -6 -26 5 -5 23 8 7 15 21 15 31 0 11 7 19 16 19 15 0
43 26 44 41 0 13 -31 18 -55 9 -15 -6 -25 -17 -25 -30 0 -11 -7 -20 -15 -20
-9 0 -12 -6 -9 -15 4 -8 -1 -17 -10 -21 -9 -3 -13 -11 -9 -17 4 -6 0 -8 -10
-4 -10 3 -17 2 -17 -3 0 -6 -14 -25 -31 -43 -18 -17 -38 -45 -46 -62 -7 -16
-22 -45 -33 -62 -11 -18 -17 -40 -14 -48 5 -11 2 -13 -10 -9 -12 4 -16 0 -16
-15 0 -12 -4 -21 -8 -21 -9 0 -11 -9 -15 -54 -1 -14 -7 -22 -14 -19 -14 6 -28
-41 -17 -58 4 -7 3 -10 -3 -6 -7 4 -9 -8 -8 -33 1 -28 -2 -40 -11 -40 -9 0
-14 -11 -14 -27 0 -23 2 -25 11 -13 8 11 9 9 3 -10 -4 -14 -11 -26 -15 -28 -5
-2 -9 -8 -9 -13 0 -6 5 -7 10 -4 7 4 9 -2 4 -19 -3 -14 -7 -37 -8 -51 0 -14
-4 -25 -8 -25 -12 0 -9 -35 4 -48 9 -9 9 -12 0 -12 -17 0 -15 -113 3 -230 36
-227 47 -280 61 -280 8 0 14 -4 14 -10 0 -5 -4 -10 -10 -10 -5 0 -10 -20 -10
-44 0 -65 -29 -69 -99 -15 -47 37 -120 17 -122 -34 -5 -122 5 -218 31 -297 31
-95 36 -123 50 -262 11 -105 47 -232 81 -279 30 -42 108 -99 135 -99 19 0 24
-6 25 -27 3 -54 7 -79 23 -123 9 -25 27 -88 40 -140 28 -111 46 -162 88 -247
25 -52 30 -71 26 -112 -5 -52 -23 -85 -40 -75 -5 3 -1 12 9 20 16 13 15 13 -9
3 l-26 -11 24 -23 c13 -12 24 -29 24 -36 -1 -10 -4 -8 -11 4 -15 25 -29 11
-23 -22 3 -16 1 -31 -4 -35 -6 -3 -8 -16 -4 -28 3 -13 1 -19 -5 -15 -6 4 -10
-1 -9 -11 0 -9 -6 -17 -14 -16 -9 1 -16 -9 -17 -24 0 -14 -8 -29 -17 -34 -8
-5 -13 -14 -10 -22 3 -7 -4 -34 -16 -60 -11 -26 -20 -59 -20 -73 0 -14 -7 -41
-17 -60 -15 -33 -15 -37 7 -91 81 -199 220 -403 408 -597 123 -128 213 -233
205 -238 -5 -2 -3 -3 3 -1 6 1 40 -27 75 -63 68 -70 175 -145 267 -189 72 -34
239 -59 280 -42 15 7 34 12 43 13 9 1 27 12 40 25 13 12 37 30 52 40 31 19
152 135 206 196 18 22 51 59 73 84 63 73 274 348 289 378 8 15 33 56 55 92 94
147 145 296 149 438 2 56 -1 102 -5 102 -5 0 -12 20 -16 45 -3 26 -12 52 -18
58 -6 7 -12 17 -12 22 -1 6 -5 20 -9 33 -4 14 -2 22 5 22 8 0 7 8 -4 24 -10
15 -12 27 -6 31 6 3 10 13 10 21 0 8 -4 13 -9 10 -5 -3 -12 1 -15 10 -3 8 -2
12 4 9 6 -3 10 -2 10 4 0 5 -4 13 -10 16 -20 12 -10 26 11 15 11 -7 23 -9 26
-7 2 3 -6 11 -19 18 -31 16 -38 28 -38 65 0 43 41 152 103 274 14 26 63 179
93 288 17 59 19 62 50 62 36 0 123 59 148 101 26 44 55 145 81 284 13 72 38
169 56 215 32 87 50 235 35 294 -17 70 -83 85 -155 36 -24 -17 -48 -30 -53
-30 -17 0 -24 44 -16 94 35 199 57 383 53 432 -2 22 -7 73 -10 114 -11 138
-54 337 -85 392 -6 10 -10 25 -10 34 0 46 -123 259 -150 259 -8 1 -14 7 -12
14 4 18 -58 82 -71 74 -6 -3 -7 -1 -4 4 8 13 -21 38 -52 46 -21 5 -23 3 -17
-24 5 -27 3 -30 -14 -24 -13 4 -20 2 -20 -7 0 -7 -11 -1 -25 14 -14 15 -25 35
-25 45 0 27 -15 44 -32 38 -9 -4 -19 -2 -23 4 -3 7 0 8 9 5 23 -9 20 19 -4 41
-11 10 -23 15 -27 12 -3 -4 -15 0 -25 10 -24 22 -23 8 2 -19 11 -12 17 -24 14
-27 -3 -3 -35 26 -72 65 -37 39 -81 76 -99 83 -18 7 -38 19 -44 27 -6 8 -22
14 -35 14 -13 0 -24 3 -24 8 0 12 -72 41 -145 57 -38 9 -77 20 -85 24 -8 4
-39 9 -69 10 -29 1 -59 5 -65 8 -14 9 -83 13 -90 6z m-746 -293 c-6 -11 -16
-20 -22 -20 -6 0 -3 9 7 20 10 11 20 20 22 20 2 0 -1 -9 -7 -20z m1550 -54 c0
-3 -4 -8 -10 -11 -5 -3 -10 -1 -10 4 0 6 5 11 10 11 6 0 10 -2 10 -4z m125
-46 c3 -5 1 -10 -4 -10 -6 0 -11 5 -11 10 0 6 2 10 4 10 3 0 8 -4 11 -10z
m-1895 -30 c0 -5 -5 -10 -11 -10 -5 0 -7 5 -4 10 3 6 8 10 11 10 2 0 4 -4 4
-10z m1965 -20 c3 -5 1 -10 -4 -10 -6 0 -11 5 -11 10 0 6 2 10 4 10 3 0 8 -4
11 -10z m-47 -45 c-3 -3 -9 2 -12 12 -6 14 -5 15 5 6 7 -7 10 -15 7 -18z
m-2178 -331 c0 -8 -4 -12 -10 -9 -5 3 -10 10 -10 16 0 5 5 9 10 9 6 0 10 -7
10 -16z m1362 -374 c-17 -10 -32 -24 -35 -32 -2 -7 -8 -10 -12 -6 -11 10 48
66 63 60 8 -3 3 -11 -16 -22z m-52 0 c0 -5 -2 -10 -4 -10 -3 0 -8 5 -11 10 -3
6 -1 10 4 10 6 0 11 -4 11 -10z m-103 -46 c-7 -7 -37 7 -37 17 0 6 9 5 21 -1
11 -7 19 -14 16 -16z m175 -1 c11 1 23 -4 25 -11 3 -8 -1 -10 -13 -5 -12 4
-15 3 -10 -6 5 -7 15 -10 23 -7 9 4 22 1 29 -5 20 -16 17 1 -3 25 -18 20 -17
20 2 6 11 -8 26 -21 34 -28 10 -10 16 -10 21 -2 9 15 40 1 40 -19 0 -10 9 -17
20 -18 11 -1 20 2 20 8 0 5 -5 9 -11 9 -5 0 -7 5 -4 11 5 6 13 3 22 -10 17
-26 30 -27 35 -3 3 15 6 14 16 -5 11 -19 10 -22 -3 -17 -8 4 -15 1 -15 -5 0
-6 -5 -11 -12 -11 -6 0 -20 -8 -31 -17 -19 -17 -19 -17 -13 4 6 19 4 22 -11
16 -10 -3 -24 -11 -32 -17 -11 -8 -15 -8 -19 2 -3 10 -7 9 -16 -3 -17 -23 -49
-9 -40 18 6 20 6 20 -10 4 -10 -9 -22 -17 -27 -17 -6 0 -7 -9 -4 -21 6 -18 5
-20 -14 -10 -12 7 -21 17 -22 24 0 8 -2 8 -6 -1 -9 -24 -54 -62 -71 -62 -14 1
-13 4 7 21 13 11 20 23 16 27 -4 4 -10 1 -12 -5 -3 -7 -11 -13 -19 -13 -19 0
-18 -29 1 -36 8 -4 15 -13 15 -22 0 -13 -3 -13 -19 2 -11 10 -21 13 -25 7 -4
-5 -1 -13 6 -17 7 -5 4 -10 -12 -16 -27 -10 -41 -1 -20 12 8 5 11 12 7 16 -4
4 -19 -3 -33 -17 -18 -17 -23 -19 -18 -6 3 9 11 17 16 17 6 0 5 6 -2 15 -9 11
-9 15 -1 15 7 0 9 5 6 11 -5 6 -12 4 -22 -8 -14 -17 -14 -17 -10 3 2 11 -1 21
-7 21 -6 0 -20 4 -31 8 -16 5 -17 5 -5 -4 18 -13 8 -24 -14 -15 -9 4 -15 13
-12 20 18 43 18 49 1 29 -9 -11 -21 -19 -27 -17 -8 2 -7 -2 0 -11 10 -12 8
-13 -13 -9 -31 5 -43 22 -18 23 14 0 13 2 -5 10 -27 10 -45 3 -36 -14 5 -9 4
-9 -6 0 -7 6 -18 9 -25 7 -7 -3 -16 -1 -20 5 -3 6 -15 11 -26 11 -22 0 -24 11
-7 28 9 9 9 12 -3 12 -8 0 -20 -10 -28 -21 -10 -18 -15 -19 -22 -8 -14 22 -11
29 11 29 11 0 20 4 20 8 0 12 64 10 73 -2 6 -7 7 -5 4 5 -4 11 5 27 22 42 28
25 54 22 73 -7 5 -8 13 -7 28 2 16 9 26 10 42 1 16 -9 18 -13 7 -20 -8 -5 -9
-9 -3 -9 5 0 16 6 22 12 10 10 17 10 34 -1 18 -11 20 -11 15 2 -6 16 12 13 76
-12 16 -6 34 -11 40 -11 13 0 -26 25 -55 36 -10 3 -18 10 -18 14 0 16 25 17
43 2 16 -14 20 -14 40 7 18 17 23 19 25 7 2 -9 12 -15 24 -13z m-512 -43 c0
-5 -5 -10 -11 -10 -5 0 -7 5 -4 10 3 6 8 10 11 10 2 0 4 -4 4 -10z m-39 -33
c-10 -9 -11 -8 -5 6 3 10 9 15 12 12 3 -3 0 -11 -7 -18z m860 -10 c-10 -9 -11
-8 -5 6 3 10 9 15 12 12 3 -3 0 -11 -7 -18z m-836 -27 c3 -6 -1 -7 -9 -4 -18
7 -21 14 -7 14 6 0 13 -4 16 -10z m515 -29 c0 -6 -4 -13 -10 -16 -5 -3 -10 1
-10 9 0 9 5 16 10 16 6 0 10 -4 10 -9z m130 -1 c0 -5 -5 -10 -11 -10 -5 0 -7
5 -4 10 3 6 8 10 11 10 2 0 4 -4 4 -10z m-160 -34 c0 -2 -7 -7 -16 -10 -8 -3
-12 -2 -9 4 6 10 25 14 25 6z m-610 -30 c0 -3 -4 -8 -10 -11 -5 -3 -10 -1 -10
4 0 6 5 11 10 11 6 0 10 -2 10 -4z m527 -40 c10 10 19 12 21 6 2 -6 10 -8 18
-5 20 7 17 0 -8 -21 -18 -15 -20 -16 -15 -2 7 17 -8 22 -18 6 -9 -14 -17 -12
-45 11 l-25 21 28 -16 c26 -16 29 -16 44 0z m-423 -52 c6 -15 4 -15 -11 -3
-10 7 -20 15 -22 16 -2 2 3 3 11 3 9 0 19 -7 22 -16z m421 -33 c3 -5 1 -12 -5
-16 -5 -3 -10 1 -10 9 0 18 6 21 15 7z m-641 -60 c3 -5 -5 -11 -19 -13 -26 -5
-35 6 -12 15 19 8 25 8 31 -2z m1354 -7 c-10 -9 -58 -12 -58 -3 0 5 14 9 32 9
17 0 29 -3 26 -6z m-1353 -64 c3 -5 1 -10 -4 -10 -6 0 -11 5 -11 10 0 6 2 10
4 10 3 0 8 -4 11 -10z m205 -41 c15 -7 20 -13 12 -16 -6 -3 -10 -9 -6 -14 3
-5 -3 -8 -13 -7 -19 3 -124 -27 -156 -44 -31 -16 -34 2 -4 24 25 18 59 69 56
84 -3 18 27 20 55 3 17 -10 42 -24 56 -30z m1004 33 c-6 -22 34 -84 64 -97 12
-5 22 -13 22 -17 0 -10 -6 -10 -28 1 -9 5 -46 17 -82 27 -57 15 -102 38 -89
46 18 12 105 56 111 57 3 1 4 -7 2 -17z m116 -2 c0 -5 -4 -10 -10 -10 -5 0
-10 5 -10 10 0 6 5 10 10 10 6 0 10 -4 10 -10z m-1399 -89 c40 -25 22 -35 -44
-27 -75 10 -83 16 -63 55 9 17 21 29 26 26 5 -3 12 0 16 6 4 8 12 2 21 -15 8
-15 28 -35 44 -45z m443 41 c-16 -19 -44 -20 -44 -1 0 4 6 6 13 3 8 -3 20 2
27 11 7 8 15 14 17 11 3 -2 -3 -13 -13 -24z m621 9 c-3 -6 -11 -8 -17 -5 -6 4
-5 9 3 15 16 10 23 4 14 -10z m484 -10 c38 -53 30 -60 -71 -66 l-73 -5 40 23
c22 12 46 35 53 50 17 34 26 34 51 -2z m-429 6 c0 -2 -11 -14 -25 -27 -14 -13
-25 -21 -25 -17 0 3 10 15 22 27 21 19 28 24 28 17z m-800 -17 c0 -5 -5 -10
-11 -10 -5 0 -7 5 -4 10 3 6 8 10 11 10 2 0 4 -4 4 -10z m74 -16 c7 -19 2 -18
-19 6 -16 17 -16 20 -3 15 9 -4 19 -13 22 -21z m766 16 c0 -5 -9 -10 -21 -10
-11 0 -17 5 -14 10 3 6 13 10 21 10 8 0 14 -4 14 -10z m-915 -60 c3 -5 -1 -10
-10 -10 -9 0 -30 -7 -48 -17 -30 -15 -31 -15 -17 2 23 28 65 42 75 25z m125 2
c0 -5 -13 -9 -30 -10 -16 0 -30 4 -30 9 0 5 14 9 30 9 17 0 30 -4 30 -8z m770
-2 c0 -5 -8 -10 -17 -10 -15 0 -16 2 -3 10 19 12 20 12 20 0z m45 0 c-3 -5
-14 -10 -23 -10 -15 0 -15 2 -2 10 20 13 33 13 25 0z m130 -17 l30 -14 -35 6
c-108 16 -115 18 -95 26 23 8 56 2 100 -18z m-1170 -3 c-3 -5 -18 -10 -33 -9
-24 0 -25 1 -7 9 28 12 47 12 40 0z m1225 0 c0 -5 -5 -10 -11 -10 -5 0 -7 5
-4 10 3 6 8 10 11 10 2 0 4 -4 4 -10z m-2038 -382 c-7 -7 -12 -8 -12 -2 0 14
12 26 19 19 2 -3 -1 -11 -7 -17z m112 -3 c-4 -8 -8 -15 -10 -15 -2 0 -4 7 -4
15 0 8 4 15 10 15 5 0 7 -7 4 -15z m1271 -125 c4 -6 11 -7 17 -4 6 4 14 0 19
-7 6 -11 11 -11 20 -2 9 9 15 9 25 -2 16 -16 19 -55 4 -55 -5 0 -10 6 -10 13
0 8 -3 7 -10 -3 -7 -12 -12 -12 -22 -2 -6 6 -31 12 -54 12 -39 0 -42 2 -36 23
8 32 34 48 47 27z m25 -611 c0 -5 -4 -8 -9 -4 -5 3 -12 -3 -14 -12 -4 -14 -5
-13 -6 5 -1 13 5 22 14 22 8 0 15 -5 15 -11z m-106 -265 c20 -20 21 -45 1 -38
-8 4 -15 1 -15 -5 0 -6 -4 -11 -9 -11 -5 0 -8 12 -6 28 2 15 4 30 4 35 1 11 8
9 25 -9z m142 -24 c8 0 11 -6 7 -17 -4 -11 -8 -12 -11 -5 -2 7 -11 12 -19 12
-10 0 -13 -6 -9 -16 3 -8 2 -12 -4 -9 -6 3 -10 15 -10 27 0 14 5 18 16 14 9
-3 22 -6 30 -6z m-66 -16 c0 -8 -5 -12 -10 -9 -6 4 -8 11 -5 16 9 14 15 11 15
-7z m-30 -23 c0 -12 -20 -25 -27 -18 -7 7 6 27 18 27 5 0 9 -4 9 -9z"/>
<path d="M2760 4270 c0 -22 1 -23 24 -14 18 7 10 34 -10 34 -8 0 -14 -9 -14
-20z"/>
<path d="M2845 4250 c-3 -6 1 -7 9 -4 18 7 21 14 7 14 -6 0 -13 -4 -16 -10z"/>
<path d="M3250 4241 c0 -6 4 -13 10 -16 6 -3 7 1 4 9 -7 18 -14 21 -14 7z"/>
<path d="M2985 4230 c3 -5 8 -10 11 -10 2 0 4 5 4 10 0 6 -5 10 -11 10 -5 0
-7 -4 -4 -10z"/>
<path d="M3070 4195 c0 -8 4 -15 10 -15 5 0 7 7 4 15 -4 8 -8 15 -10 15 -2 0
-4 -7 -4 -15z"/>
<path d="M2875 4180 c-3 -5 -4 -10 -1 -10 2 0 12 -3 20 -6 12 -5 15 -2 10 10
-7 18 -20 21 -29 6z"/>
<path d="M3796 3752 c-2 -4 4 -8 14 -8 10 0 16 4 14 8 -3 4 -9 8 -14 8 -5 0
-11 -4 -14 -8z"/>
<path d="M2259 5323 c-13 -15 -12 -15 9 -4 23 12 28 21 13 21 -5 0 -15 -7 -22
-17z"/>
<path d="M3811 5148 c7 -16 16 -28 21 -28 13 0 10 9 -13 33 l-21 22 13 -27z"/>
<path d="M1470 1663 c-43 -18 -74 -46 -112 -101 -18 -27 -48 -52 -81 -68 -29
-15 -64 -35 -79 -45 -14 -11 -59 -27 -99 -36 -54 -12 -81 -24 -109 -50 -21
-18 -73 -49 -116 -69 -44 -19 -113 -52 -154 -73 -41 -22 -86 -42 -100 -46 -14
-4 -41 -19 -61 -32 -20 -13 -76 -40 -125 -59 -144 -58 -194 -79 -284 -122 -47
-21 -100 -46 -117 -53 -18 -8 -33 -20 -33 -26 0 -7 2 -13 4 -13 2 0 107 43
232 96 211 88 275 115 514 224 47 21 114 51 149 65 35 15 90 47 120 71 42 33
69 45 106 51 27 3 60 12 75 20 14 7 29 13 33 13 23 0 100 66 122 104 34 57 52
73 100 80 35 6 42 12 57 46 18 45 14 47 -42 23z"/>
<path d="M4348 1658 c-2 -7 -2 -26 1 -42 5 -24 14 -31 49 -41 23 -7 60 -29 82
-49 22 -19 50 -38 62 -40 13 -3 37 -8 53 -11 17 -4 57 -10 90 -15 63 -8 119
-23 138 -38 22 -16 102 -40 207 -62 135 -28 197 -46 228 -66 13 -9 36 -20 51
-24 63 -20 262 -100 326 -132 109 -54 287 -149 315 -168 47 -32 50 -32 50 -10
0 24 -99 92 -207 141 -37 18 -104 49 -149 69 -45 21 -92 41 -105 45 -35 11
-215 91 -279 125 -30 15 -82 36 -115 45 -116 33 -263 85 -314 110 -30 15 -80
29 -123 35 -119 14 -224 56 -271 109 -28 32 -81 43 -89 19z"/>
<path d="M5357 1013 c-4 -3 -7 -11 -7 -17 0 -6 5 -5 12 2 6 6 9 14 7 17 -3 3
-9 2 -12 -2z"/>
<path d="M621 917 c2 -1 13 -9 24 -17 19 -14 19 -14 6 3 -7 9 -18 17 -24 17
-6 0 -8 -1 -6 -3z"/>
<path d="M5640 780 c0 -5 5 -10 11 -10 5 0 7 5 4 10 -3 6 -8 10 -11 10 -2 0
-4 -4 -4 -10z"/>
<path d="M5861 468 c0 -9 -4 -25 -7 -35 -5 -17 -5 -17 6 0 6 10 9 25 7 35 -4
15 -5 15 -6 0z"/>
<path d="M5 400 c3 -5 8 -10 11 -10 2 0 4 5 4 10 0 6 -5 10 -11 10 -5 0 -7 -4
-4 -10z"/>
<path d="M5815 370 c-3 -5 1 -10 9 -10 9 0 16 5 16 10 0 6 -4 10 -9 10 -6 0
-13 -4 -16 -10z"/>
<path d="M5806 225 c-9 -26 -7 -32 5 -12 6 10 9 21 6 23 -2 3 -7 -2 -11 -11z"/>
<path d="M5770 45 c0 -14 2 -25 4 -25 2 0 6 11 8 25 3 14 1 25 -3 25 -5 0 -9
-11 -9 -25z"/>
</g>
</svg>
